<svg xmlns="http://www.w3.org/2000/svg" width="72" height="72" viewBox="0 0 72 72">
  <g id="Group_58" data-name="Group 58" transform="translate(-3026 -3048)">
    <rect id="Rectangle_15" data-name="Rectangle 15" width="72" height="72" transform="translate(3026 3048)" fill="none"/>
    <g id="Group_84" data-name="Group 84" transform="translate(3038 3050.999)">
      <g id="Group_46" data-name="Group 46" transform="translate(12.897 25.265)">
        <path id="Path_787" data-name="Path 787" d="M455.531,196.765H437.074v-14.23h2.636v11.593h13.184V182.535h2.636Z" transform="translate(-437.074 -182.535)" fill="#294A9A"/>
      </g>
      <g id="Group_47" data-name="Group 47" transform="translate(12.897 36.859)">
        <path id="Path_788" data-name="Path 788" d="M447.622,217.7H437.074V186.933h10.548Zm-7.912-2.636h5.275v-25.5H439.71Z" transform="translate(-437.074 -186.933)" fill="#294A9A"/>
      </g>
      <g id="Group_48" data-name="Group 48" transform="translate(20.809 36.859)">
        <path id="Path_789" data-name="Path 789" d="M450.62,217.7H440.075V186.933H450.62Zm-7.909-2.636h5.273v-25.5h-5.273Z" transform="translate(-440.075 -186.933)" fill="#294A9A"/>
      </g>
      <g id="Group_49" data-name="Group 49" transform="translate(14.678)">
        <path id="Path_790" data-name="Path 790" d="M445.238,191.4a6.943,6.943,0,0,1-5.27-2.51,9.182,9.182,0,0,1-2.183-5.929l-.034-2.476a7.436,7.436,0,0,1,7.329-7.532,7.68,7.68,0,0,1,5.283,2.106,7.393,7.393,0,0,1,2.249,5.223l.032,2.476a9.185,9.185,0,0,1-2.019,5.987,6.923,6.923,0,0,1-5.294,2.655Zm-.055-15.81h-.066a4.793,4.793,0,0,0-4.73,4.859l.034,2.476a6.553,6.553,0,0,0,1.537,4.237,4.491,4.491,0,0,0,3.335,1.6,4.346,4.346,0,0,0,3.293-1.69,6.551,6.551,0,0,0,1.421-4.279l-.032-2.476a4.793,4.793,0,0,0-4.793-4.73Z" transform="translate(-437.75 -172.952)" fill="#294A9A"/>
      </g>
      <g id="Group_50" data-name="Group 50" transform="translate(34.905 32.285)">
        <path id="Path_791" data-name="Path 791" d="M448.058,220.765h-2.636V191.09a5.89,5.89,0,1,1,11.78,0h-2.637a3.253,3.253,0,1,0-6.507,0Z" transform="translate(-445.422 -185.198)" fill="#294A9A"/>
      </g>
      <g id="Group_51" data-name="Group 51" transform="translate(4.981 64.992)">
        <rect id="Rectangle_12" data-name="Rectangle 12" width="40.384" height="2.636" fill="#294A9A"/>
      </g>
      <g id="Group_52" data-name="Group 52" transform="translate(26.068 13.954)">
        <path id="Path_792" data-name="Path 792" d="M457.192,197.988h-2.636c0-12.594-6.791-16.269-12.486-17.139l.4-2.6C447.967,179.083,457.192,182.758,457.192,197.988Z" transform="translate(-442.07 -178.245)" fill="#294A9A"/>
      </g>
      <g id="Group_53" data-name="Group 53" transform="translate(3.248 13.954)">
        <path id="Path_793" data-name="Path 793" d="M436.05,202.536h-2.636v-4.548c0-15.23,9.225-18.9,14.724-19.743l.4,2.6c-5.694.87-12.483,4.545-12.483,17.139Z" transform="translate(-433.414 -178.245)" fill="#294A9A"/>
      </g>
      <g id="Group_57" data-name="Group 57" transform="translate(0 41.337)">
        <g id="Group_54" data-name="Group 54" transform="translate(0 1.856)">
          <path id="Path_794" data-name="Path 794" d="M436.748,204.972a4.574,4.574,0,0,1-4.566-4.569h2.636a1.931,1.931,0,1,0,1.93-1.932,4.567,4.567,0,1,1,4.569-4.568h-2.636a1.931,1.931,0,1,0-1.932,1.932,4.569,4.569,0,0,1,0,9.138Z" transform="translate(-432.182 -189.336)" fill="#294A9A"/>
        </g>
        <g id="Group_55" data-name="Group 55" transform="translate(3.248)">
          <rect id="Rectangle_13" data-name="Rectangle 13" width="2.636" height="3.174" fill="#294A9A"/>
        </g>
        <g id="Group_56" data-name="Group 56" transform="translate(3.248 16.531)">
          <rect id="Rectangle_14" data-name="Rectangle 14" width="2.636" height="3.174" fill="#294A9A"/>
        </g>
      </g>
    </g>
  </g>
</svg>
