<svg xmlns="http://www.w3.org/2000/svg" width="72" height="72" viewBox="0 0 72 72">
  <g id="Group_32" data-name="Group 32" transform="translate(-2846 -3048)">
    <rect id="Rectangle_15" data-name="Rectangle 15" width="72" height="72" transform="translate(2846 3048)" fill="none"/>
    <g id="Group_46" data-name="Group 46" transform="translate(2856 3054.002)">
      <g id="Group_26" data-name="Group 26" transform="translate(3.137)">
        <path id="Path_771" data-name="Path 771" d="M420.38,228.106l-1.108-1.917,8.663-5-9.239-16-28.971,16.726,2.84,4.921-1.917,1.108L386.7,221.1l32.8-18.941L430.96,222Z" transform="translate(-386.701 -202.161)" fill="#294A9A"/>
        <g id="Group_19" data-name="Group 19" transform="translate(28.664 13.726)">
          <rect id="Rectangle_5" data-name="Rectangle 5" width="2.507" height="2.216" transform="translate(0 1.189) rotate(-28.314)" fill="#294A9A"/>
        </g>
        <g id="Group_20" data-name="Group 20" transform="translate(25.798 4.047)">
          <path id="Path_772" data-name="Path 772" d="M403,208.743l-4.651-2.869,1.164-1.886,4.084,2.522,4.8-.143.065,2.215Z" transform="translate(-398.348 -203.988)" fill="#294A9A"/>
        </g>
        <g id="Group_25" data-name="Group 25" transform="translate(17.682 13.092)">
          <g id="Group_24" data-name="Group 24">
            <g id="Group_21" data-name="Group 21" transform="translate(0 1.001)">
              <path id="Path_773" data-name="Path 773" d="M400.169,218.907a3.342,3.342,0,0,1-.857-.115,3.278,3.278,0,0,1-2-1.535l1.92-1.108a1.08,1.08,0,1,0,.394-1.473,3.3,3.3,0,1,1,1.206-4.506l-1.921,1.108a1.062,1.062,0,0,0-.653-.505,1.08,1.08,0,1,0,.26,1.981,3.294,3.294,0,1,1,1.652,6.149Z" transform="translate(-394.684 -208.523)" fill="#294A9A"/>
            </g>
            <g id="Group_22" data-name="Group 22" transform="translate(0.173)">
              <rect id="Rectangle_6" data-name="Rectangle 6" width="2.214" height="2.138" transform="translate(0 1.106) rotate(-29.989)" fill="#294A9A"/>
            </g>
            <g id="Group_23" data-name="Group 23" transform="translate(5.736 9.636)">
              <rect id="Rectangle_7" data-name="Rectangle 7" width="2.214" height="2.136" transform="matrix(0.866, -0.5, 0.5, 0.866, 0, 1.108)" fill="#294A9A"/>
            </g>
          </g>
        </g>
      </g>
      <g id="Group_27" data-name="Group 27" transform="translate(0 25.752)">
        <path id="Path_774" data-name="Path 774" d="M432.624,248.318H388.479a3.2,3.2,0,0,1-3.194-3.192V213.787H387.5v31.339a.979.979,0,0,0,.979.977h44.145a.98.98,0,0,0,.979-.977V220.058a.98.98,0,0,0-.979-.977v-2.215a3.2,3.2,0,0,1,3.194,3.192v25.068a3.2,3.2,0,0,1-3.194,3.192Z" transform="translate(-385.285 -213.787)" fill="#294A9A"/>
      </g>
      <g id="Group_28" data-name="Group 28" transform="translate(0 18.985)">
        <path id="Path_775" data-name="Path 775" d="M432.617,222.793H388.479a3.2,3.2,0,0,1-3.194-3.194v-5.673a3.2,3.2,0,0,1,3.194-3.194h1.455v2.215h-1.455a.981.981,0,0,0-.979.979V219.6a.981.981,0,0,0,.979.979H430.4v-6.652a.98.98,0,0,0-.977-.979v-2.215a3.2,3.2,0,0,1,3.192,3.194Z" transform="translate(-385.285 -210.732)" fill="#294A9A"/>
      </g>
      <g id="Group_29" data-name="Group 29" transform="translate(4.846 23.907)">
        <rect id="Rectangle_8" data-name="Rectangle 8" width="37.644" height="2.215" fill="#294A9A"/>
      </g>
      <g id="Group_30" data-name="Group 30" transform="translate(33.346 39.38)">
        <path id="Path_776" data-name="Path 776" d="M417.526,231H405.354a5.02,5.02,0,0,1-5.015-5.015v-1.032a5.018,5.018,0,0,1,5.015-5.013h12.172Zm-12.172-8.845a2.8,2.8,0,0,0-2.8,2.8v1.032a2.8,2.8,0,0,0,2.8,2.8h9.957v-6.63Z" transform="translate(-400.339 -219.939)" fill="#294A9A"/>
      </g>
      <g id="Group_31" data-name="Group 31" transform="translate(37.909 43.803)">
        <path id="Path_777" data-name="Path 777" d="M403.507,224.16a1.24,1.24,0,0,1-.419-.091,1.069,1.069,0,0,1-.377-.241,1.146,1.146,0,0,1,0-1.573,1.161,1.161,0,0,1,1.218-.244,2.093,2.093,0,0,1,.354.244,1.223,1.223,0,0,1,.33.8,1.076,1.076,0,0,1-.33.775,1.129,1.129,0,0,1-.776.33Z" transform="translate(-402.399 -221.936)" fill="#294A9A"/>
      </g>
    </g>
  </g>
</svg>
