<svg xmlns="http://www.w3.org/2000/svg" width="72" height="72" viewBox="0 0 72 72">
  <g id="Group_40" data-name="Group 40" transform="translate(-2900 -3048)">
    <rect id="Rectangle_15" data-name="Rectangle 15" width="72" height="72" transform="translate(2900 3048)" fill="none"/>
    <g id="Group_59" data-name="Group 59" transform="translate(2903.002 3062)">
      <g id="Group_33" data-name="Group 33" transform="translate(17.201 6.785)">
        <path id="Path_778" data-name="Path 778" d="M230.479,141.351a18.61,18.61,0,1,1,18.61-18.61,18.61,18.61,0,0,1-18.61,18.61Zm0-35.142a16.532,16.532,0,1,0,16.532,16.532,16.532,16.532,0,0,0-16.532-16.532Z" transform="translate(-211.869 -104.131)" fill="#294A9A"/>
        <g id="Group_32" data-name="Group 32" transform="translate(7.193 7.193)">
          <path id="Path_779" data-name="Path 779" d="M226.748,130.427a11.418,11.418,0,1,1,11.418-11.418A11.418,11.418,0,0,1,226.748,130.427Zm0-20.757a9.339,9.339,0,1,0,9.339,9.339,9.339,9.339,0,0,0-9.339-9.339Z" transform="translate(-215.33 -107.592)" fill="#294A9A"/>
        </g>
      </g>
      <g id="Group_39" data-name="Group 39">
        <g id="Group_36" data-name="Group 36" transform="translate(0 1.039)">
          <path id="Path_780" data-name="Path 780" d="M212.4,144.333a3.634,3.634,0,0,1-3.631-3.629V119.889a1.553,1.553,0,0,0-1.55-1.55,3.632,3.632,0,0,1-3.629-3.629V101.366h2.078V114.71a1.55,1.55,0,0,0,1.55,1.55,3.632,3.632,0,0,1,3.629,3.629V140.7a1.551,1.551,0,0,0,3.1,0V119.889a3.632,3.632,0,0,1,3.629-3.629,1.552,1.552,0,0,0,1.55-1.55V101.366H221.2V114.71a3.632,3.632,0,0,1-3.629,3.629,1.552,1.552,0,0,0-1.55,1.55V140.7a3.633,3.633,0,0,1-3.625,3.633Z" transform="translate(-203.592 -101.366)" fill="#294A9A"/>
          <g id="Group_34" data-name="Group 34" transform="translate(5.179)">
            <rect id="Rectangle_9" data-name="Rectangle 9" width="2.078" height="10.455" fill="#294A9A"/>
          </g>
          <g id="Group_35" data-name="Group 35" transform="translate(10.359)">
            <rect id="Rectangle_10" data-name="Rectangle 10" width="2.078" height="10.455" fill="#294A9A"/>
          </g>
        </g>
        <g id="Group_38" data-name="Group 38" transform="translate(55.563)">
          <g id="Group_37" data-name="Group 37" transform="translate(1.795 23.704)">
            <path id="Path_781" data-name="Path 781" d="M234.821,132.574a3.633,3.633,0,0,1-3.629-3.629V112.272h7.259v16.673a3.634,3.634,0,0,1-3.63,3.629Zm-1.55-18.224v14.6a1.551,1.551,0,0,0,3.1,0v-14.6Z" transform="translate(-231.192 -112.272)" fill="#294A9A"/>
          </g>
          <path id="Path_782" data-name="Path 782" d="M232.219,126.043c-5.351-11.6,2.321-24.159,2.652-24.687l.3-.49h4.206v24.743H237.3V102.944h-.952c-1.311,2.367-6.565,12.866-2.247,22.23Z" transform="translate(-230.328 -100.866)" fill="#294A9A"/>
        </g>
      </g>
    </g>
  </g>
</svg>
