<svg xmlns="http://www.w3.org/2000/svg" width="48" height="96" viewBox="0 0 48 96">
  <g id="Group_16" data-name="Group 16" transform="translate(-673.956 -1277)">
    <g id="Group_13" data-name="Group 13" transform="translate(673.956 1325)">
      <g id="Ellipse_8" data-name="Ellipse 8" fill="none" stroke="#55c3ea" stroke-width="2">
        <circle cx="24" cy="24" r="24" stroke="none"/>
        <circle cx="24" cy="24" r="23" fill="none"/>
      </g>
      <g id="Group_12" data-name="Group 12" transform="translate(38 12) rotate(90)">
        <path id="Path_18" data-name="Path 18" d="M12,0,24,20H0Z" fill="none"/>
        <path id="Path_19" data-name="Path 19" d="M12,3.887,3.532,18H20.468L12,3.887M12,0,24,20H0Z" fill="#55c3ea"/>
      </g>
    </g>
    <g id="Group_15" data-name="Group 15" transform="translate(673.956 1277)">
      <g id="Ellipse_8-2" data-name="Ellipse 8" fill="none" stroke="#fff" stroke-width="2">
        <circle cx="24" cy="24" r="24" stroke="none"/>
        <circle cx="24" cy="24" r="23" fill="none"/>
      </g>
      <g id="Group_12-2" data-name="Group 12" transform="translate(38 12) rotate(90)">
        <path id="Path_18-2" data-name="Path 18" d="M12,0,24,20H0Z" fill="none"/>
        <path id="Path_19-2" data-name="Path 19" d="M12,3.887,3.532,18H20.468L12,3.887M12,0,24,20H0Z" fill="#fff"/>
      </g>
    </g>
  </g>
</svg>
