<svg xmlns="http://www.w3.org/2000/svg" width="72" height="72" viewBox="0 0 72 72">
  <g id="Group_46" data-name="Group 46" transform="translate(-2977 -3048)">
    <rect id="Rectangle_15" data-name="Rectangle 15" width="72" height="72" transform="translate(2977 3048)" fill="none"/>
    <g id="Group_70" data-name="Group 70" transform="translate(2987 3059.001)">
      <g id="Group_41" data-name="Group 41" transform="translate(16.36)">
        <path id="Path_783" data-name="Path 783" d="M380.627,260.89l-4.473-4.406c-9.253-9.084-11.738-11.526-11.738-15.859a8.96,8.96,0,0,1,16.22-5.264,8.951,8.951,0,0,1,16.206,5.264c0,4.332-2.487,6.775-11.743,15.863Zm-7.239-27.008a6.752,6.752,0,0,0-6.744,6.744c0,3.4,2.126,5.485,11.072,14.27l2.911,2.866,2.911-2.864c8.95-8.785,11.076-10.876,11.076-14.272a6.73,6.73,0,0,0-12.937-2.616l-.292.673h-1.469L379.58,238a6.719,6.719,0,0,0-6.192-4.118Z" transform="translate(-364.416 -231.653)" fill="#294A9A"/>
        <g id="Group_40" data-name="Group 40" transform="translate(22.34 4.796)">
          <path id="Path_784" data-name="Path 784" d="M378.616,239.1a1.113,1.113,0,0,1-1.114-1.114,1.95,1.95,0,0,0-1.948-1.95,1.114,1.114,0,0,1,0-2.229,4.183,4.183,0,0,1,4.176,4.179,1.115,1.115,0,0,1-1.114,1.114Z" transform="translate(-374.44 -233.805)" fill="#294A9A"/>
        </g>
      </g>
      <g id="Group_45" data-name="Group 45" transform="translate(0 26.112)">
        <g id="Group_42" data-name="Group 42" transform="translate(1.114)">
          <path id="Path_785" data-name="Path 785" d="M386.7,265.768H357.575v-2.229H386.7a5.823,5.823,0,0,0,4.087-1.694l13.833-13.833a1.41,1.41,0,0,0-1.834-2.131L392,253.831a4.467,4.467,0,0,1-3.171,1.261H386.79v-2.229h2.039a2.41,2.41,0,0,0,1.721-.715l10.914-8.061a3.638,3.638,0,0,1,4.731,5.5L392.362,263.42a8.065,8.065,0,0,1-5.662,2.348Z" transform="translate(-357.575 -243.37)" fill="#294A9A"/>
        </g>
        <g id="Group_43" data-name="Group 43" transform="translate(0 5.875)">
          <rect id="Rectangle_11" data-name="Rectangle 11" width="2.229" height="18.795" fill="#294A9A"/>
        </g>
        <g id="Group_44" data-name="Group 44" transform="translate(1.114 3.95)">
          <path id="Path_786" data-name="Path 786" d="M383.973,254.4H372.7v-2.229h11.268a2.1,2.1,0,0,0,0-4.208,78.54,78.54,0,0,1-11.6-.011,14.464,14.464,0,0,1-1.763-.39,4.689,4.689,0,0,0-4.415.82c-.009.011-1.31,1.335-2.492,2.565a6.234,6.234,0,0,1-4.477,1.9h-1.654v-2.229h1.654a3.993,3.993,0,0,0,2.87-1.219c1.192-1.239,2.5-2.572,2.5-2.572a6.878,6.878,0,0,1,6.588-1.422,13.045,13.045,0,0,0,1.473.332,78.013,78.013,0,0,0,11.239,0h.007a4.332,4.332,0,1,1,.069,8.663Z" transform="translate(-357.575 -245.142)" fill="#294A9A"/>
        </g>
      </g>
    </g>
  </g>
</svg>
