<svg xmlns="http://www.w3.org/2000/svg" width="72" height="72" viewBox="0 0 72 72">
  <g id="Group_40" data-name="Group 40" transform="translate(-2947 -3048)">
    <rect id="Rectangle_15" data-name="Rectangle 15" width="72" height="72" transform="translate(2947 3048)" fill="none"/>
    <g id="Group_31" data-name="Group 31" transform="translate(2961.004 3063)">
      <path id="Path_769" data-name="Path 769" d="M503.588,116.737H492.481l10.34-7.337-1.183-1.669-12.691,9.006H461.14v2.046h2.437l-3.352,6.7,1.831.915,3.81-7.62H497.5l3.81,7.62,1.831-.915-3.352-6.7h3.8Z" transform="translate(-460.117 -83.694)" fill="#294A9A"/>
      <path id="Path_770" data-name="Path 770" d="M466.1,116.279a5.93,5.93,0,0,0,4.909-2.607,5.929,5.929,0,0,0,4.907,2.607h.913a5.881,5.881,0,0,0,3.884-1.486v12.166h2.046V114.791a5.878,5.878,0,0,0,3.886,1.488h.913a5.929,5.929,0,0,0,4.907-2.607,5.909,5.909,0,0,0,10.792-2.853h.047v-2.046h-.082c-.823-7.138-10.134-12.788-21.487-12.788s-20.662,5.65-21.487,12.788h-.08v2.046h.047a5.92,5.92,0,0,0,5.885,5.46Zm0-2.046a3.892,3.892,0,0,1-3.855-3.413h7.713a3.892,3.892,0,0,1-3.858,3.412Zm16.66-15.5c2.621,1.549,7.907,5.233,8.593,10.037H482.76Zm-2.046,10.037h-8.591c.685-4.8,5.969-8.488,8.591-10.037Zm-3.884,5.46h-.913a3.894,3.894,0,0,1-3.857-3.413h8.625a3.892,3.892,0,0,1-3.854,3.415Zm10.729,0h-.913a3.892,3.892,0,0,1-3.857-3.413h8.625a3.892,3.892,0,0,1-3.853,3.415Zm9.816,0a3.892,3.892,0,0,1-3.857-3.413h7.713a3.892,3.892,0,0,1-3.854,3.415Zm3.81-5.46h-7.778c-.52-4.672-4.432-8.3-7.51-10.463,8.235,1.085,14.548,5.3,15.29,10.466Zm-23.6-10.46c-3.078,2.157-6.992,5.791-7.51,10.463h-7.778C463.035,103.606,469.348,99.392,477.581,98.31Z" transform="translate(-460.172 -95.985)" fill="#294A9A"/>
    </g>
  </g>
</svg>
