<svg xmlns="http://www.w3.org/2000/svg" width="22.185" height="22.185" viewBox="0 0 22.185 22.185">
  <path id="Path_7101" data-name="Path 7101" d="M11.092,0h0A11.092,11.092,0,0,0,0,11.092H0A11.092,11.092,0,0,0,11.093,22.185h0A11.092,11.092,0,0,0,22.185,11.091h0A11.092,11.092,0,0,0,11.092,0Zm5.429,11.37-3.505,3.505a.393.393,0,0,1-.555,0h0a.4.4,0,0,1,0-.559L15.3,11.487H5.937a.4.4,0,0,1-.39-.4A.388.388,0,0,1,5.93,10.7h9.362L12.457,7.862a.393.393,0,1,1,.559-.541l3.505,3.505a.384.384,0,0,1,0,.543Z" fill="#fff"/>
</svg>
