<svg xmlns="http://www.w3.org/2000/svg" width="29" height="29" viewBox="0 0 29 29">
  <g id="Group_6" data-name="Group 6" transform="translate(-0.396)">
    <path id="Path_12" data-name="Path 12" d="M647.159,1235.124a8.033,8.033,0,0,1-12.359,7.133,5.679,5.679,0,0,0,4.182-1.17,2.826,2.826,0,0,1-2.639-1.962,2.826,2.826,0,0,0,1.276-.048,2.828,2.828,0,0,1-2.266-2.8,2.814,2.814,0,0,0,1.28.353,2.828,2.828,0,0,1-.874-3.771,8.021,8.021,0,0,0,5.822,2.952,2.827,2.827,0,0,1,4.814-2.577,5.668,5.668,0,0,0,1.794-.685,2.837,2.837,0,0,1-1.242,1.563,5.641,5.641,0,0,0,1.622-.445,5.723,5.723,0,0,1-1.409,1.462Z" transform="translate(-627.128 -1223.375)" fill="#fff"/>
    <g id="Ellipse_3" data-name="Ellipse 3" transform="translate(0.396)" fill="none" stroke="#fff" stroke-width="1">
      <circle cx="14.5" cy="14.5" r="14.5" stroke="none"/>
      <circle cx="14.5" cy="14.5" r="14" fill="none"/>
    </g>
  </g>
</svg>
