<svg xmlns="http://www.w3.org/2000/svg" width="29" height="29" viewBox="0 0 29 29"><defs><style>.a{fill:#fff;fill-rule:evenodd;}.b,.d{fill:none;}.b{stroke:#fff;}.c{stroke:none;}</style></defs><path class="a" d="M76.592,1144.643a4.052,4.052,0,0,0-.276-1.166,1.229,1.229,0,0,0-.366-.5l-.016-.011a1.7,1.7,0,0,0-.678-.274,7.028,7.028,0,0,0-.937-.113c-.555-.038-1.31-.068-2.187-.089-.9-.021-1.888-.033-2.894-.033s-2,.012-2.894.033c-.877.021-1.632.051-2.187.089a7.038,7.038,0,0,0-.937.113,1.682,1.682,0,0,0-.693.285,1.227,1.227,0,0,0-.367.5,4.079,4.079,0,0,0-.277,1.165v.008a39.884,39.884,0,0,0,0,6.581,4.081,4.081,0,0,0,.277,1.164,1.224,1.224,0,0,0,.367.5,1.667,1.667,0,0,0,.692.286h.007a6.967,6.967,0,0,0,.931.112c.557.037,1.316.068,2.2.089s1.882.033,2.884.033,1.991-.011,2.885-.033,1.64-.052,2.2-.089a6.951,6.951,0,0,0,.938-.113,1.666,1.666,0,0,0,.693-.286l.013-.011a1.243,1.243,0,0,0,.353-.485,4.054,4.054,0,0,0,.276-1.165,39.607,39.607,0,0,0,0-6.587Zm-8.88,5.2v-3.822l3.665,1.911Z" transform="translate(-54.738 -1133.436)"/><g class="b"><circle class="c" cx="14.5" cy="14.5" r="14.5"/><circle class="d" cx="14.5" cy="14.5" r="14"/></g></svg>