<svg xmlns="http://www.w3.org/2000/svg" width="15.028" height="21.657" viewBox="0 0 15.028 21.657">
  <path id="Component_11_2" data-name="Component 11 – 2" d="M17.674,22.659C12.07,12.335,10.8,11.6,10.8,8.516a7.514,7.514,0,1,1,15.028,0c0,1.523.1,2.519-5.585,11.778C14,9.859,14.049,9.764,14.049,8.517a4.262,4.262,0,1,1,8.524,0h-.081a1.739,1.739,0,0,1-1.587-1.1,2.815,2.815,0,0,0-5.41,1.1c0,.972.139,1.1,4.717,8.88,3.488-6.14,4.166-6.777,4.166-8.882a6.068,6.068,0,1,0-12.136,0c0,2.481,1.031,3.129,6.005,12.179a1.444,1.444,0,0,1-.575,1.965Z" transform="translate(-10.8 -1.002)" fill="#fff"/>
</svg>
