<svg xmlns="http://www.w3.org/2000/svg" width="528.33" height="147.97" viewBox="0 0 528.33 147.97">
  <g id="Alice-white-01" transform="translate(-56.12 -40.19)">
    <g id="Group_10" data-name="Group 10">
      <path id="Path_13" data-name="Path 13" d="M149.33,148.02H89.81L76.44,185.2H57.12L111.37,43.13h16.39L182.11,185.2H162.89ZM95.47,132.7h48.3l-24.2-66.45Z" fill="none" stroke="#fff" stroke-linecap="round" stroke-linejoin="round" stroke-width="2"/>
      <path id="Path_14" data-name="Path 14" d="M220.07,169.88H287.4V185.2H201.24V43.13h18.83V169.88Z" fill="none" stroke="#fff" stroke-linecap="round" stroke-linejoin="round" stroke-width="2"/>
      <path id="Path_15" data-name="Path 15" d="M328.87,185.2H310.13V43.13h18.74Z" fill="none" stroke="#fff" stroke-linecap="round" stroke-linejoin="round" stroke-width="2"/>
      <path id="Path_16" data-name="Path 16" d="M467.63,140.12q-2.64,22.545-16.64,34.79t-37.23,12.25q-25.17,0-40.35-18.05t-15.17-48.3V107.15q0-19.8,7.07-34.83t20.05-23.08q12.975-8.055,30.05-8.05,22.635,0,36.3,12.64t15.91,34.98H448.8q-2.445-17.025-10.59-24.66t-22.78-7.63q-17.955,0-28.15,13.28t-10.2,37.79v13.77q0,23.145,9.66,36.82t27.03,13.67q15.615,0,23.96-7.07t11.08-24.64h18.82Z" fill="none" stroke="#fff" stroke-linecap="round" stroke-linejoin="round" stroke-width="2"/>
      <path id="Path_17" data-name="Path 17" d="M573.5,119.53H511.93v50.35h71.52V185.2H493.19V43.13h89.28V58.45H511.92v45.76h61.57v15.32Z" fill="none" stroke="#fff" stroke-linecap="round" stroke-linejoin="round" stroke-width="2"/>
    </g>
  </g>
</svg>
